<svg width="107" height="20" viewBox="0 0 107 20" fill="none" xmlns="http://www.w3.org/2000/svg">
<path d="M20 0H0V20H20V0Z" fill="#219653"/>
<path d="M41.6665 0H21.6665V20H41.6665V0Z" fill="#219653"/>
<path d="M63.3335 0H43.3335V20H63.3335V0Z" fill="#219653"/>
<path d="M85 0H65V20H85V0Z" fill="#219653"/>
<path d="M106.667 0H86.6665V20H106.667V0Z" fill="#219653"/>
<path d="M9.99951 13.4792L13.0412 12.7083L14.312 16.625L9.99951 13.4792ZM16.9995 8.41667H11.6453L9.99951 3.375L8.35368 8.41667H2.99951L7.33285 11.5417L5.68701 16.5833L10.0203 13.4583L12.687 11.5417L16.9995 8.41667Z" fill="white"/>
<path d="M31.6665 13.4792L34.7082 12.7083L35.979 16.625L31.6665 13.4792ZM38.6665 8.41667H33.3123L31.6665 3.375L30.0207 8.41667H24.6665L28.9998 11.5417L27.354 16.5833L31.6873 13.4583L34.354 11.5417L38.6665 8.41667Z" fill="white"/>
<path d="M53.333 13.4792L56.3747 12.7083L57.6455 16.625L53.333 13.4792ZM60.333 8.41667H54.9788L53.333 3.375L51.6872 8.41667H46.333L50.6663 11.5417L49.0205 16.5833L53.3538 13.4583L56.0205 11.5417L60.333 8.41667Z" fill="white"/>
<path d="M74.9995 13.4792L78.0412 12.7083L79.312 16.625L74.9995 13.4792ZM81.9995 8.41667H76.6453L74.9995 3.375L73.3537 8.41667H67.9995L72.3328 11.5417L70.687 16.5833L75.0203 13.4583L77.687 11.5417L81.9995 8.41667Z" fill="white"/>
<path d="M96.6665 13.4792L99.7082 12.7083L100.979 16.625L96.6665 13.4792ZM103.667 8.41667H98.3123L96.6665 3.375L95.0207 8.41667H89.6665L93.9998 11.5417L92.354 16.5833L96.6873 13.4583L99.354 11.5417L103.667 8.41667Z" fill="white"/>
</svg>
