<svg width="34" height="27" viewBox="0 0 34 27" fill="none" xmlns="http://www.w3.org/2000/svg">
<path d="M29.155 6.08283C28.8583 5.62315 28.4323 5.24093 27.9194 4.97415C27.4064 4.70737 26.8243 4.56532 26.231 4.56212H22.1V1.52071C22.1 1.11739 21.9209 0.730593 21.6021 0.445405C21.2833 0.160217 20.8509 0 20.4 0H3.4C2.49826 0 1.63346 0.320433 0.995837 0.890809C0.358213 1.46118 0 2.23478 0 3.04141V18.2485C0.000611561 18.7818 0.158003 19.3057 0.456385 19.7674C0.754766 20.2292 1.18365 20.6126 1.7 20.8793C1.63913 22.2909 2.20763 23.6663 3.28043 24.703C4.35324 25.7396 5.84246 26.3526 7.4205 26.4071C8.99854 26.4615 10.5361 25.953 11.695 24.9933C12.8539 24.0337 13.5391 22.7015 13.6 21.2899H18.87C19.058 22.5623 19.7565 23.7302 20.8354 24.5762C21.9144 25.4221 23.3002 25.8886 24.735 25.8886C26.1698 25.8886 27.5556 25.4221 28.6346 24.5762C29.7135 23.7302 30.412 22.5623 30.6 21.2899C31.5017 21.2899 32.3665 20.9695 33.0042 20.3991C33.6418 19.8287 34 19.0551 34 18.2485V13.6864C33.9951 13.4092 33.9134 13.1375 33.762 12.8956L29.155 6.08283ZM22.1 7.60353H26.231L29.291 12.1657H22.1V7.60353ZM7.65 22.8106C7.14566 22.8106 6.65264 22.6768 6.2333 22.4262C5.81395 22.1755 5.48711 21.8193 5.29411 21.4025C5.1011 20.9856 5.05061 20.527 5.149 20.0845C5.24739 19.642 5.49025 19.2356 5.84688 18.9166C6.2035 18.5976 6.65787 18.3803 7.15252 18.2923C7.64717 18.2043 8.15989 18.2495 8.62584 18.4221C9.09179 18.5948 9.49005 18.8871 9.77025 19.2622C10.0504 19.6374 10.2 20.0784 10.2 20.5295C10.2 21.1345 9.93134 21.7147 9.45312 22.1425C8.97491 22.5703 8.3263 22.8106 7.65 22.8106ZM24.65 22.8106C24.1457 22.8106 23.6526 22.6768 23.2333 22.4262C22.814 22.1755 22.4871 21.8193 22.2941 21.4025C22.1011 20.9856 22.0506 20.527 22.149 20.0845C22.2474 19.642 22.4903 19.2356 22.8469 18.9166C23.2035 18.5976 23.6579 18.3803 24.1525 18.2923C24.6472 18.2043 25.1599 18.2495 25.6258 18.4221C26.0918 18.5948 26.49 18.8871 26.7702 19.2622C27.0504 19.6374 27.2 20.0784 27.2 20.5295C27.2 21.1345 26.9313 21.7147 26.4531 22.1425C25.9749 22.5703 25.3263 22.8106 24.65 22.8106Z" fill="#4B2905"/>
</svg>
