<svg width="85" height="20" viewBox="0 0 85 20" fill="none" xmlns="http://www.w3.org/2000/svg">
<path d="M19.9425 0H0V20H19.9425V0Z" fill="#219653"/>
<path d="M41.547 0H21.6045V20H41.547V0Z" fill="#219653"/>
<path d="M63.1515 0H43.209V20H63.1515V0Z" fill="#219653"/>
<path d="M84.7555 0H64.813V20H84.7555V0Z" fill="#219653"/>
<path d="M9.9711 13.4792L13.004 12.7083L14.2712 16.625L9.9711 13.4792ZM16.951 8.41667H11.6122L9.9711 3.375L8.32999 8.41667H2.99121L7.31209 11.5417L5.67099 16.5833L9.99187 13.4583L12.6509 11.5417L16.951 8.41667Z" fill="white"/>
<path d="M31.5756 13.4792L34.6085 12.7083L35.8757 16.625L31.5756 13.4792ZM38.5555 8.41667H33.2167L31.5756 3.375L29.9345 8.41667H24.5957L28.9166 11.5417L27.2755 16.5833L31.5964 13.4583L34.2554 11.5417L38.5555 8.41667Z" fill="white"/>
<path d="M53.1796 13.4792L56.2125 12.7083L57.4797 16.625L53.1796 13.4792ZM60.1595 8.41667H54.8207L53.1796 3.375L51.5385 8.41667H46.1997L50.5206 11.5417L48.8795 16.5833L53.2004 13.4583L55.8594 11.5417L60.1595 8.41667Z" fill="white"/>
<path d="M74.7841 13.4792L77.817 12.7083L79.0842 16.625L74.7841 13.4792ZM81.764 8.41667H76.4252L74.7841 3.375L73.143 8.41667H67.8042L72.1251 11.5417L70.484 16.5833L74.8049 13.4583L77.4639 11.5417L81.764 8.41667Z" fill="white"/>
</svg>
