<svg width="48" height="48" viewBox="0 0 48 48" fill="none" xmlns="http://www.w3.org/2000/svg">
<path fill-rule="evenodd" clip-rule="evenodd" d="M23.212 4.15983C23.461 4.05309 23.7291 3.99805 24 3.99805C24.2709 3.99805 24.539 4.05309 24.788 4.15983L37.576 9.64183C38.2957 9.95034 38.909 10.4633 39.3399 11.1171C39.7708 11.7709 40.0003 12.5368 40 13.3198V27.0398C39.9998 29.5077 39.3472 31.9316 38.1084 34.066C36.8696 36.2004 35.0887 37.9694 32.946 39.1938L24.992 43.7378C24.6899 43.9104 24.3479 44.0012 24 44.0012C23.6521 44.0012 23.3101 43.9104 23.008 43.7378L15.054 39.1938C12.9107 37.9691 11.1294 36.1994 9.89058 34.0643C8.65177 31.9291 7.99954 29.5043 8 27.0358V13.3198C8.00009 12.5371 8.22979 11.7717 8.66066 11.1183C9.09153 10.4649 9.70463 9.9522 10.424 9.64383L23.212 4.15983ZM31.414 21.4138C31.7783 21.0366 31.9799 20.5314 31.9753 20.007C31.9708 19.4826 31.7605 18.981 31.3896 18.6102C31.0188 18.2394 30.5172 18.029 29.9928 18.0245C29.4684 18.0199 28.9632 18.2215 28.586 18.5858L22 25.1718L19.414 22.5858C19.0368 22.2215 18.5316 22.0199 18.0072 22.0245C17.4828 22.029 16.9812 22.2394 16.6104 22.6102C16.2395 22.981 16.0292 23.4826 16.0247 24.007C16.0201 24.5314 16.2217 25.0366 16.586 25.4138L20.586 29.4138C20.9611 29.7888 21.4697 29.9994 22 29.9994C22.5303 29.9994 23.0389 29.7888 23.414 29.4138L31.414 21.4138Z" fill="#582F04"/>
</svg>
