<svg width="33" height="34" viewBox="0 0 33 34" fill="none" xmlns="http://www.w3.org/2000/svg">
<path fill-rule="evenodd" clip-rule="evenodd" d="M11.2501 14C11.2501 13.0054 11.6452 12.0516 12.3484 11.3483C13.0517 10.6451 14.0055 10.25 15.0001 10.25C15.9946 10.25 16.9485 10.6451 17.6517 11.3483C18.355 12.0516 18.7501 13.0054 18.7501 14H11.2501ZM8.75007 14C8.75007 12.3424 9.40855 10.7527 10.5807 9.58058C11.7528 8.40848 13.3425 7.75 15.0001 7.75C16.6577 7.75 18.2474 8.40848 19.4195 9.58058C20.5916 10.7527 21.2501 12.3424 21.2501 14H25.0001C25.1737 14 25.3455 14.0362 25.5043 14.1062C25.6632 14.1762 25.8058 14.2786 25.9229 14.4068C26.0401 14.535 26.1292 14.6862 26.1847 14.8507C26.2401 15.0153 26.2607 15.1896 26.2451 15.3625L25.2013 26.84C25.1165 27.7717 24.6865 28.6381 23.9957 29.269C23.3048 29.8999 22.4031 30.2498 21.4676 30.25H8.53257C7.59701 30.2498 6.69531 29.8999 6.00449 29.269C5.31368 28.6381 4.88365 27.7717 4.79882 26.84L3.75507 15.3625C3.73945 15.1896 3.76002 15.0153 3.81549 14.8507C3.87095 14.6862 3.96009 14.535 4.07722 14.4068C4.19436 14.2786 4.33691 14.1762 4.4958 14.1062C4.65469 14.0362 4.82643 14 5.00007 14H8.75007Z" fill="#582F04"/>
<circle cx="25" cy="14" r="8" fill="#FAF1E1"/>
<path d="M24.212 11.266C23.8947 12.0313 23.736 12.9133 23.736 13.912C23.736 14.9107 23.8947 15.7927 24.212 16.558C24.5387 17.3233 24.9447 17.706 25.43 17.706C25.9153 17.706 26.3167 17.3233 26.634 16.558C26.9607 15.7927 27.124 14.9107 27.124 13.912C27.124 12.9133 26.9607 12.0313 26.634 11.266C26.3167 10.4913 25.9153 10.104 25.43 10.104C24.9447 10.104 24.5387 10.4913 24.212 11.266ZM23.26 16.922C22.7373 16.1007 22.476 15.0973 22.476 13.912C22.476 12.7267 22.7373 11.7233 23.26 10.902C23.792 10.0807 24.5153 9.67 25.43 9.67C26.3447 9.67 27.0633 10.0807 27.586 10.902C28.118 11.7233 28.384 12.7267 28.384 13.912C28.384 15.0973 28.118 16.1007 27.586 16.922C27.0633 17.734 26.3447 18.14 25.43 18.14C24.5153 18.14 23.792 17.734 23.26 16.922Z" fill="black"/>
</svg>
