<svg width="374" height="35" viewBox="0 0 374 35" fill="none" xmlns="http://www.w3.org/2000/svg">
<path d="M35 0H0V35H35V0Z" fill="#219653"/>
<path d="M72.917 0H37.917V35H72.917V0Z" fill="#219653"/>
<path d="M110.833 0H75.833V35H110.833V0Z" fill="#219653"/>
<path d="M148.75 0H113.75V35H148.75V0Z" fill="#219653"/>
<path d="M181 0H152V35H181V0Z" fill="#219653"/>
<path d="M17.5 23.5885L22.8229 22.2396L25.0469 29.0938L17.5 23.5885ZM29.75 14.7292H20.3802L17.5 5.90625L14.6198 14.7292H5.25L12.8333 20.1979L9.95312 29.0208L17.5365 23.5521L22.2031 20.1979L29.75 14.7292Z" fill="white"/>
<path d="M55.4155 23.5885L60.7384 22.2396L62.9624 29.0938L55.4155 23.5885ZM67.6655 14.7292H58.2957L55.4155 5.90625L52.5353 14.7292H43.1655L50.7489 20.1979L47.8687 29.0208L55.452 23.5521L60.1186 20.1979L67.6655 14.7292Z" fill="white"/>
<path d="M93.333 23.5885L98.6559 22.2396L100.88 29.0938L93.333 23.5885ZM105.583 14.7292H96.2132L93.333 5.90625L90.4528 14.7292H81.083L88.6663 20.1979L85.7861 29.0208L93.3695 23.5521L98.0361 20.1979L105.583 14.7292Z" fill="white"/>
<path d="M131.25 23.5885L136.573 22.2396L138.797 29.0938L131.25 23.5885ZM143.5 14.7292H134.13L131.25 5.90625L128.37 14.7292H119L126.583 20.1979L123.703 29.0208L131.286 23.5521L135.953 20.1979L143.5 14.7292Z" fill="white"/>
<path d="M169.166 23.5885L174.488 22.2396L176.712 29.0938L169.166 23.5885ZM181.416 14.7292H172.046L169.166 5.90625L166.285 14.7292H156.916L164.499 20.1979L161.619 29.0208L169.202 23.5521L173.869 20.1979L181.416 14.7292Z" fill="white"/>
<path d="M204.344 18.75V20.5156H196.148L196.039 19.1484L200.781 11.625H202.57L200.633 14.8672L198.273 18.75H204.344ZM203.055 11.625V23H200.805V11.625H203.055ZM205.766 21.9141C205.766 21.5807 205.88 21.3021 206.109 21.0781C206.344 20.8542 206.654 20.7422 207.039 20.7422C207.424 20.7422 207.732 20.8542 207.961 21.0781C208.195 21.3021 208.312 21.5807 208.312 21.9141C208.312 22.2474 208.195 22.526 207.961 22.75C207.732 22.974 207.424 23.0859 207.039 23.0859C206.654 23.0859 206.344 22.974 206.109 22.75C205.88 22.526 205.766 22.2474 205.766 21.9141ZM217.867 19.8828C217.867 20.5964 217.701 21.1979 217.367 21.6875C217.034 22.1719 216.576 22.5391 215.992 22.7891C215.414 23.0339 214.758 23.1562 214.023 23.1562C213.289 23.1562 212.63 23.0339 212.047 22.7891C211.464 22.5391 211.003 22.1719 210.664 21.6875C210.326 21.1979 210.156 20.5964 210.156 19.8828C210.156 19.4036 210.253 18.9714 210.445 18.5859C210.638 18.1953 210.906 17.862 211.25 17.5859C211.599 17.3047 212.008 17.0911 212.477 16.9453C212.945 16.7943 213.456 16.7188 214.008 16.7188C214.747 16.7188 215.409 16.849 215.992 17.1094C216.576 17.3698 217.034 17.737 217.367 18.2109C217.701 18.6849 217.867 19.2422 217.867 19.8828ZM215.602 19.7344C215.602 19.3854 215.534 19.0859 215.398 18.8359C215.268 18.5807 215.083 18.3854 214.844 18.25C214.604 18.1146 214.326 18.0469 214.008 18.0469C213.69 18.0469 213.411 18.1146 213.172 18.25C212.932 18.3854 212.745 18.5807 212.609 18.8359C212.479 19.0859 212.414 19.3854 212.414 19.7344C212.414 20.0781 212.479 20.375 212.609 20.625C212.745 20.875 212.932 21.0677 213.172 21.2031C213.417 21.3333 213.701 21.3984 214.023 21.3984C214.346 21.3984 214.625 21.3333 214.859 21.2031C215.099 21.0677 215.281 20.875 215.406 20.625C215.536 20.375 215.602 20.0781 215.602 19.7344ZM217.625 14.6406C217.625 15.2188 217.471 15.7318 217.164 16.1797C216.857 16.6224 216.43 16.9688 215.883 17.2188C215.341 17.4688 214.721 17.5938 214.023 17.5938C213.32 17.5938 212.695 17.4688 212.148 17.2188C211.602 16.9688 211.174 16.6224 210.867 16.1797C210.56 15.7318 210.406 15.2188 210.406 14.6406C210.406 13.9531 210.56 13.375 210.867 12.9062C211.18 12.4323 211.607 12.0729 212.148 11.8281C212.695 11.5833 213.315 11.4609 214.008 11.4609C214.711 11.4609 215.333 11.5833 215.875 11.8281C216.422 12.0729 216.849 12.4323 217.156 12.9062C217.469 13.375 217.625 13.9531 217.625 14.6406ZM215.375 14.7422C215.375 14.4349 215.32 14.1693 215.211 13.9453C215.102 13.7161 214.945 13.5391 214.742 13.4141C214.544 13.2891 214.299 13.2266 214.008 13.2266C213.727 13.2266 213.484 13.2865 213.281 13.4062C213.083 13.526 212.93 13.7005 212.82 13.9297C212.716 14.1536 212.664 14.4245 212.664 14.7422C212.664 15.0495 212.716 15.3203 212.82 15.5547C212.93 15.7839 213.086 15.9635 213.289 16.0938C213.492 16.224 213.737 16.2891 214.023 16.2891C214.31 16.2891 214.552 16.224 214.75 16.0938C214.953 15.9635 215.107 15.7839 215.211 15.5547C215.32 15.3203 215.375 15.0495 215.375 14.7422ZM223.312 18.8672V18.6875C223.312 18.0781 223.401 17.513 223.578 16.9922C223.755 16.4661 224.01 16.0104 224.344 15.625C224.677 15.2344 225.081 14.9323 225.555 14.7188C226.029 14.5 226.56 14.3906 227.148 14.3906C227.742 14.3906 228.276 14.5 228.75 14.7188C229.229 14.9323 229.635 15.2344 229.969 15.625C230.307 16.0104 230.565 16.4661 230.742 16.9922C230.919 17.513 231.008 18.0781 231.008 18.6875V18.8672C231.008 19.4766 230.919 20.0417 230.742 20.5625C230.565 21.0833 230.307 21.5391 229.969 21.9297C229.635 22.3151 229.232 22.6172 228.758 22.8359C228.289 23.0495 227.758 23.1562 227.164 23.1562C226.57 23.1562 226.036 23.0495 225.562 22.8359C225.089 22.6172 224.682 22.3151 224.344 21.9297C224.01 21.5391 223.755 21.0833 223.578 20.5625C223.401 20.0417 223.312 19.4766 223.312 18.8672ZM224.758 18.6875V18.8672C224.758 19.2891 224.807 19.6875 224.906 20.0625C225.005 20.4323 225.154 20.7604 225.352 21.0469C225.555 21.3333 225.807 21.5599 226.109 21.7266C226.411 21.888 226.763 21.9688 227.164 21.9688C227.56 21.9688 227.906 21.888 228.203 21.7266C228.505 21.5599 228.755 21.3333 228.953 21.0469C229.151 20.7604 229.299 20.4323 229.398 20.0625C229.503 19.6875 229.555 19.2891 229.555 18.8672V18.6875C229.555 18.2708 229.503 17.8776 229.398 17.5078C229.299 17.1328 229.148 16.8021 228.945 16.5156C228.747 16.224 228.497 15.9948 228.195 15.8281C227.898 15.6615 227.549 15.5781 227.148 15.5781C226.753 15.5781 226.404 15.6615 226.102 15.8281C225.805 15.9948 225.555 16.224 225.352 16.5156C225.154 16.8021 225.005 17.1328 224.906 17.5078C224.807 17.8776 224.758 18.2708 224.758 18.6875ZM237.992 21.0469V14.5469H239.445V23H238.062L237.992 21.0469ZM238.266 19.2656L238.867 19.25C238.867 19.8125 238.807 20.3333 238.688 20.8125C238.573 21.2865 238.385 21.6979 238.125 22.0469C237.865 22.3958 237.523 22.6693 237.102 22.8672C236.68 23.0599 236.167 23.1562 235.562 23.1562C235.151 23.1562 234.773 23.0964 234.43 22.9766C234.091 22.8568 233.799 22.6719 233.555 22.4219C233.31 22.1719 233.12 21.8464 232.984 21.4453C232.854 21.0443 232.789 20.5625 232.789 20V14.5469H234.234V20.0156C234.234 20.3958 234.276 20.7109 234.359 20.9609C234.448 21.2057 234.565 21.401 234.711 21.5469C234.862 21.6875 235.029 21.7865 235.211 21.8438C235.398 21.901 235.591 21.9297 235.789 21.9297C236.404 21.9297 236.891 21.8125 237.25 21.5781C237.609 21.3385 237.867 21.0182 238.023 20.6172C238.185 20.2109 238.266 19.7604 238.266 19.2656ZM245.188 14.5469V15.6562H240.617V14.5469H245.188ZM242.164 12.4922H243.609V20.9062C243.609 21.1927 243.654 21.4089 243.742 21.5547C243.831 21.7005 243.945 21.7969 244.086 21.8438C244.227 21.8906 244.378 21.9141 244.539 21.9141C244.659 21.9141 244.784 21.9036 244.914 21.8828C245.049 21.8568 245.151 21.8359 245.219 21.8203L245.227 23C245.112 23.0365 244.961 23.0703 244.773 23.1016C244.591 23.138 244.37 23.1562 244.109 23.1562C243.755 23.1562 243.43 23.0859 243.133 22.9453C242.836 22.8047 242.599 22.5703 242.422 22.2422C242.25 21.9089 242.164 21.4609 242.164 20.8984V12.4922ZM250.469 18.8672V18.6875C250.469 18.0781 250.557 17.513 250.734 16.9922C250.911 16.4661 251.167 16.0104 251.5 15.625C251.833 15.2344 252.237 14.9323 252.711 14.7188C253.185 14.5 253.716 14.3906 254.305 14.3906C254.898 14.3906 255.432 14.5 255.906 14.7188C256.385 14.9323 256.792 15.2344 257.125 15.625C257.464 16.0104 257.721 16.4661 257.898 16.9922C258.076 17.513 258.164 18.0781 258.164 18.6875V18.8672C258.164 19.4766 258.076 20.0417 257.898 20.5625C257.721 21.0833 257.464 21.5391 257.125 21.9297C256.792 22.3151 256.388 22.6172 255.914 22.8359C255.445 23.0495 254.914 23.1562 254.32 23.1562C253.727 23.1562 253.193 23.0495 252.719 22.8359C252.245 22.6172 251.839 22.3151 251.5 21.9297C251.167 21.5391 250.911 21.0833 250.734 20.5625C250.557 20.0417 250.469 19.4766 250.469 18.8672ZM251.914 18.6875V18.8672C251.914 19.2891 251.964 19.6875 252.062 20.0625C252.161 20.4323 252.31 20.7604 252.508 21.0469C252.711 21.3333 252.964 21.5599 253.266 21.7266C253.568 21.888 253.919 21.9688 254.32 21.9688C254.716 21.9688 255.062 21.888 255.359 21.7266C255.661 21.5599 255.911 21.3333 256.109 21.0469C256.307 20.7604 256.456 20.4323 256.555 20.0625C256.659 19.6875 256.711 19.2891 256.711 18.8672V18.6875C256.711 18.2708 256.659 17.8776 256.555 17.5078C256.456 17.1328 256.305 16.8021 256.102 16.5156C255.904 16.224 255.654 15.9948 255.352 15.8281C255.055 15.6615 254.706 15.5781 254.305 15.5781C253.909 15.5781 253.56 15.6615 253.258 15.8281C252.961 15.9948 252.711 16.224 252.508 16.5156C252.31 16.8021 252.161 17.1328 252.062 17.5078C251.964 17.8776 251.914 18.2708 251.914 18.6875ZM262.133 23H260.688V13.6562C260.688 13.0469 260.797 12.5339 261.016 12.1172C261.24 11.6953 261.56 11.3776 261.977 11.1641C262.393 10.9453 262.888 10.8359 263.461 10.8359C263.628 10.8359 263.794 10.8464 263.961 10.8672C264.133 10.888 264.299 10.9193 264.461 10.9609L264.383 12.1406C264.273 12.1146 264.148 12.0964 264.008 12.0859C263.872 12.0755 263.737 12.0703 263.602 12.0703C263.294 12.0703 263.029 12.1328 262.805 12.2578C262.586 12.3776 262.419 12.5547 262.305 12.7891C262.19 13.0234 262.133 13.3125 262.133 13.6562V23ZM263.93 14.5469V15.6562H259.352V14.5469H263.93ZM271.18 17.5859L270.023 17.2891L270.594 11.625H276.43V12.9609H271.82L271.477 16.0547C271.685 15.9349 271.948 15.8229 272.266 15.7188C272.589 15.6146 272.958 15.5625 273.375 15.5625C273.901 15.5625 274.372 15.6536 274.789 15.8359C275.206 16.013 275.56 16.2682 275.852 16.6016C276.148 16.9349 276.375 17.3359 276.531 17.8047C276.688 18.2734 276.766 18.7969 276.766 19.375C276.766 19.9219 276.69 20.4245 276.539 20.8828C276.393 21.3411 276.172 21.7422 275.875 22.0859C275.578 22.4245 275.203 22.6875 274.75 22.875C274.302 23.0625 273.773 23.1562 273.164 23.1562C272.706 23.1562 272.271 23.0938 271.859 22.9688C271.453 22.8385 271.089 22.6432 270.766 22.3828C270.448 22.1172 270.188 21.7891 269.984 21.3984C269.786 21.0026 269.661 20.5391 269.609 20.0078H270.984C271.047 20.4349 271.172 20.7943 271.359 21.0859C271.547 21.3776 271.792 21.599 272.094 21.75C272.401 21.8958 272.758 21.9688 273.164 21.9688C273.508 21.9688 273.812 21.9089 274.078 21.7891C274.344 21.6693 274.568 21.4974 274.75 21.2734C274.932 21.0495 275.07 20.7786 275.164 20.4609C275.263 20.1432 275.312 19.7865 275.312 19.3906C275.312 19.0312 275.263 18.6979 275.164 18.3906C275.065 18.0833 274.917 17.8151 274.719 17.5859C274.526 17.3568 274.289 17.1797 274.008 17.0547C273.727 16.9245 273.404 16.8594 273.039 16.8594C272.555 16.8594 272.188 16.9245 271.938 17.0547C271.693 17.1849 271.44 17.362 271.18 17.5859Z" fill="black"/>
<path d="M297.5 20.9792L300.542 20.2083L301.813 24.125L297.5 20.9792ZM304.5 15.9167H299.146L297.5 10.875L295.854 15.9167H290.5L294.833 19.0417L293.187 24.0833L297.521 20.9583L300.187 19.0417L304.5 15.9167Z" fill="#219653"/>
<path d="M315.684 14.3926H313.07V21.5H311.312V14.3926H308.734V12.9688H315.684V14.3926ZM319.756 16.748C319.525 16.7168 319.322 16.7012 319.146 16.7012C318.506 16.7012 318.086 16.918 317.887 17.3516V21.5H316.193V15.1602H317.793L317.84 15.916C318.18 15.334 318.65 15.043 319.252 15.043C319.439 15.043 319.615 15.0684 319.779 15.1191L319.756 16.748ZM324.373 20.8555C323.955 21.3633 323.377 21.6172 322.639 21.6172C321.959 21.6172 321.439 21.4219 321.08 21.0312C320.725 20.6406 320.543 20.0684 320.535 19.3145V15.1602H322.229V19.2559C322.229 19.916 322.529 20.2461 323.131 20.2461C323.705 20.2461 324.1 20.0469 324.314 19.6484V15.1602H326.014V21.5H324.42L324.373 20.8555ZM330.725 19.748C330.725 19.541 330.621 19.3789 330.414 19.2617C330.211 19.1406 329.883 19.0332 329.43 18.9395C327.922 18.623 327.168 17.9824 327.168 17.0176C327.168 16.4551 327.4 15.9863 327.865 15.6113C328.334 15.2324 328.945 15.043 329.699 15.043C330.504 15.043 331.146 15.2324 331.627 15.6113C332.111 15.9902 332.354 16.4824 332.354 17.0879H330.66C330.66 16.8457 330.582 16.6465 330.426 16.4902C330.27 16.3301 330.025 16.25 329.693 16.25C329.408 16.25 329.188 16.3145 329.031 16.4434C328.875 16.5723 328.797 16.7363 328.797 16.9355C328.797 17.123 328.885 17.2754 329.061 17.3926C329.24 17.5059 329.541 17.6055 329.963 17.6914C330.385 17.7734 330.74 17.8672 331.029 17.9727C331.924 18.3008 332.371 18.8691 332.371 19.6777C332.371 20.2559 332.123 20.7246 331.627 21.084C331.131 21.4395 330.49 21.6172 329.705 21.6172C329.174 21.6172 328.701 21.5234 328.287 21.3359C327.877 21.1445 327.555 20.8848 327.32 20.5566C327.086 20.2246 326.969 19.8672 326.969 19.4844H328.574C328.59 19.7852 328.701 20.0156 328.908 20.1758C329.115 20.3359 329.393 20.416 329.74 20.416C330.064 20.416 330.309 20.3555 330.473 20.2344C330.641 20.1094 330.725 19.9473 330.725 19.748ZM335.494 13.6016V15.1602H336.578V16.4023H335.494V19.5664C335.494 19.8008 335.539 19.9688 335.629 20.0703C335.719 20.1719 335.891 20.2227 336.145 20.2227C336.332 20.2227 336.498 20.209 336.643 20.1816V21.4648C336.311 21.5664 335.969 21.6172 335.617 21.6172C334.43 21.6172 333.824 21.0176 333.801 19.8184V16.4023H332.875V15.1602H333.801V13.6016H335.494ZM343.229 18.3887C343.229 19.3652 343.006 20.1484 342.561 20.7383C342.119 21.3242 341.521 21.6172 340.768 21.6172C340.127 21.6172 339.609 21.3945 339.215 20.9492V23.9375H337.521V15.1602H339.092L339.15 15.7812C339.561 15.2891 340.096 15.043 340.756 15.043C341.537 15.043 342.145 15.332 342.578 15.9102C343.012 16.4883 343.229 17.2852 343.229 18.3008V18.3887ZM341.535 18.2656C341.535 17.6758 341.43 17.2207 341.219 16.9004C341.012 16.5801 340.709 16.4199 340.311 16.4199C339.779 16.4199 339.414 16.623 339.215 17.0293V19.625C339.422 20.043 339.791 20.252 340.322 20.252C341.131 20.252 341.535 19.5898 341.535 18.2656ZM346.07 21.5H344.371V15.1602H346.07V21.5ZM344.271 13.5195C344.271 13.2656 344.355 13.0566 344.523 12.8926C344.695 12.7285 344.928 12.6465 345.221 12.6465C345.51 12.6465 345.74 12.7285 345.912 12.8926C346.084 13.0566 346.17 13.2656 346.17 13.5195C346.17 13.7773 346.082 13.9883 345.906 14.1523C345.734 14.3164 345.506 14.3984 345.221 14.3984C344.936 14.3984 344.705 14.3164 344.529 14.1523C344.357 13.9883 344.271 13.7773 344.271 13.5195ZM349.258 21.5H347.559V12.5H349.258V21.5ZM350.395 18.2715C350.395 17.6426 350.516 17.082 350.758 16.5898C351 16.0977 351.348 15.7168 351.801 15.4473C352.258 15.1777 352.787 15.043 353.389 15.043C354.244 15.043 354.941 15.3047 355.48 15.8281C356.023 16.3516 356.326 17.0625 356.389 17.9609L356.4 18.3945C356.4 19.3672 356.129 20.1484 355.586 20.7383C355.043 21.3242 354.314 21.6172 353.4 21.6172C352.486 21.6172 351.756 21.3242 351.209 20.7383C350.666 20.1523 350.395 19.3555 350.395 18.3477V18.2715ZM352.088 18.3945C352.088 18.9961 352.201 19.457 352.428 19.7773C352.654 20.0938 352.979 20.252 353.4 20.252C353.811 20.252 354.131 20.0957 354.361 19.7832C354.592 19.4668 354.707 18.9629 354.707 18.2715C354.707 17.6816 354.592 17.2246 354.361 16.9004C354.131 16.5762 353.807 16.4141 353.389 16.4141C352.975 16.4141 352.654 16.5762 352.428 16.9004C352.201 17.2207 352.088 17.7188 352.088 18.3945ZM359.471 13.6016V15.1602H360.555V16.4023H359.471V19.5664C359.471 19.8008 359.516 19.9688 359.605 20.0703C359.695 20.1719 359.867 20.2227 360.121 20.2227C360.309 20.2227 360.475 20.209 360.619 20.1816V21.4648C360.287 21.5664 359.945 21.6172 359.594 21.6172C358.406 21.6172 357.801 21.0176 357.777 19.8184V16.4023H356.852V15.1602H357.777V13.6016H359.471Z" fill="black"/>
</svg>
