<svg width="381" height="35" viewBox="0 0 381 35" fill="none" xmlns="http://www.w3.org/2000/svg">
<path d="M35 0H0V35H35V0Z" fill="#219653"/>
<path d="M72.917 0H37.917V35H72.917V0Z" fill="#219653"/>
<path d="M110.833 0H75.833V35H110.833V0Z" fill="#219653"/>
<path d="M148.75 0H113.75V35H148.75V0Z" fill="#219653"/>
<path d="M181 0H152V35H181V0Z" fill="#219653"/>
<path d="M17.5 23.5885L22.8229 22.2396L25.0469 29.0938L17.5 23.5885ZM29.75 14.7292H20.3802L17.5 5.90625L14.6198 14.7292H5.25L12.8333 20.1979L9.95312 29.0208L17.5365 23.5521L22.2031 20.1979L29.75 14.7292Z" fill="white"/>
<path d="M55.4155 23.5885L60.7384 22.2396L62.9624 29.0938L55.4155 23.5885ZM67.6655 14.7292H58.2957L55.4155 5.90625L52.5353 14.7292H43.1655L50.7489 20.1979L47.8687 29.0208L55.452 23.5521L60.1186 20.1979L67.6655 14.7292Z" fill="white"/>
<path d="M93.333 23.5885L98.6559 22.2396L100.88 29.0938L93.333 23.5885ZM105.583 14.7292H96.2132L93.333 5.90625L90.4528 14.7292H81.083L88.6663 20.1979L85.7861 29.0208L93.3695 23.5521L98.0361 20.1979L105.583 14.7292Z" fill="white"/>
<path d="M131.25 23.5885L136.573 22.2396L138.797 29.0938L131.25 23.5885ZM143.5 14.7292H134.13L131.25 5.90625L128.37 14.7292H119L126.583 20.1979L123.703 29.0208L131.286 23.5521L135.953 20.1979L143.5 14.7292Z" fill="white"/>
<path d="M169.166 23.5885L174.488 22.2396L176.712 29.0938L169.166 23.5885ZM181.416 14.7292H172.046L169.166 5.90625L166.285 14.7292H156.916L164.499 20.1979L161.619 29.0208L169.202 23.5521L173.869 20.1979L181.416 14.7292Z" fill="white"/>
<path d="M198.814 20.9545V19.017L203.672 11.3636H205.342V14.0455H204.354L201.291 18.892V18.983H208.195V20.9545H198.814ZM204.399 23V20.3636L204.445 19.5057V11.3636H206.751V23H204.399ZM211.053 23.1477C210.678 23.1477 210.356 23.0152 210.087 22.75C209.821 22.4811 209.689 22.1591 209.689 21.7841C209.689 21.4129 209.821 21.0947 210.087 20.8295C210.356 20.5644 210.678 20.4318 211.053 20.4318C211.416 20.4318 211.734 20.5644 212.007 20.8295C212.28 21.0947 212.416 21.4129 212.416 21.7841C212.416 22.0341 212.352 22.2633 212.223 22.4716C212.098 22.6761 211.933 22.8409 211.729 22.9659C211.524 23.0871 211.299 23.1477 211.053 23.1477ZM218.253 23.1591C217.378 23.1591 216.599 23.017 215.918 22.733C215.24 22.4451 214.707 22.053 214.321 21.5568C213.935 21.0606 213.741 20.4981 213.741 19.8693C213.741 19.3845 213.851 18.9394 214.071 18.5341C214.295 18.125 214.598 17.786 214.98 17.517C215.363 17.2443 215.791 17.0701 216.264 16.9943V16.9148C215.643 16.7898 215.139 16.4886 214.753 16.0114C214.366 15.5303 214.173 14.9716 214.173 14.3352C214.173 13.733 214.349 13.197 214.702 12.7273C215.054 12.2538 215.537 11.8826 216.151 11.6136C216.768 11.3409 217.469 11.2045 218.253 11.2045C219.037 11.2045 219.736 11.3409 220.349 11.6136C220.967 11.8864 221.452 12.2595 221.804 12.733C222.156 13.2027 222.334 13.7367 222.338 14.3352C222.334 14.9754 222.137 15.5341 221.747 16.0114C221.357 16.4886 220.857 16.7898 220.247 16.9148V16.9943C220.713 17.0701 221.135 17.2443 221.514 17.517C221.897 17.786 222.2 18.125 222.423 18.5341C222.651 18.9394 222.766 19.3845 222.77 19.8693C222.766 20.4981 222.571 21.0606 222.185 21.5568C221.798 22.053 221.264 22.4451 220.582 22.733C219.904 23.017 219.128 23.1591 218.253 23.1591ZM218.253 21.3523C218.643 21.3523 218.984 21.2822 219.276 21.142C219.567 20.9981 219.795 20.8011 219.957 20.5511C220.124 20.2973 220.207 20.0057 220.207 19.6761C220.207 19.339 220.122 19.0417 219.952 18.7841C219.781 18.5227 219.55 18.3182 219.259 18.1705C218.967 18.0189 218.632 17.9432 218.253 17.9432C217.878 17.9432 217.543 18.0189 217.247 18.1705C216.952 18.3182 216.719 18.5227 216.548 18.7841C216.382 19.0417 216.298 19.339 216.298 19.6761C216.298 20.0057 216.38 20.2973 216.543 20.5511C216.705 20.8011 216.935 20.9981 217.23 21.142C217.526 21.2822 217.866 21.3523 218.253 21.3523ZM218.253 16.1534C218.579 16.1534 218.868 16.0871 219.122 15.9545C219.376 15.822 219.575 15.6383 219.719 15.4034C219.863 15.1686 219.935 14.8977 219.935 14.5909C219.935 14.2879 219.863 14.0227 219.719 13.7955C219.575 13.5644 219.378 13.3845 219.128 13.2557C218.878 13.1231 218.586 13.0568 218.253 13.0568C217.923 13.0568 217.632 13.1231 217.378 13.2557C217.124 13.3845 216.925 13.5644 216.781 13.7955C216.641 14.0227 216.571 14.2879 216.571 14.5909C216.571 14.8977 216.643 15.1686 216.787 15.4034C216.931 15.6383 217.13 15.822 217.384 15.9545C217.637 16.0871 217.927 16.1534 218.253 16.1534ZM232.023 23.1818C231.235 23.1818 230.544 22.9943 229.949 22.6193C229.358 22.2443 228.896 21.7197 228.562 21.0455C228.233 20.3712 228.068 19.5833 228.068 18.6818C228.068 17.7727 228.233 16.9792 228.562 16.3011C228.896 15.6231 229.358 15.0966 229.949 14.7216C230.544 14.3466 231.235 14.1591 232.023 14.1591C232.811 14.1591 233.5 14.3466 234.091 14.7216C234.686 15.0966 235.148 15.6231 235.477 16.3011C235.811 16.9792 235.977 17.7727 235.977 18.6818C235.977 19.5833 235.811 20.3712 235.477 21.0455C235.148 21.7197 234.686 22.2443 234.091 22.6193C233.5 22.9943 232.811 23.1818 232.023 23.1818ZM232.023 21.9773C232.621 21.9773 233.114 21.8239 233.5 21.517C233.886 21.2102 234.172 20.8068 234.358 20.3068C234.544 19.8068 234.636 19.2652 234.636 18.6818C234.636 18.0985 234.544 17.5549 234.358 17.0511C234.172 16.5473 233.886 16.1402 233.5 15.8295C233.114 15.5189 232.621 15.3636 232.023 15.3636C231.424 15.3636 230.932 15.5189 230.545 15.8295C230.159 16.1402 229.873 16.5473 229.688 17.0511C229.502 17.5549 229.409 18.0985 229.409 18.6818C229.409 19.2652 229.502 19.8068 229.688 20.3068C229.873 20.8068 230.159 21.2102 230.545 21.517C230.932 21.8239 231.424 21.9773 232.023 21.9773ZM243.524 19.4318V14.2727H244.865V23H243.524V21.5227H243.433C243.229 21.9659 242.911 22.3428 242.479 22.6534C242.047 22.9602 241.501 23.1136 240.842 23.1136C240.297 23.1136 239.812 22.9943 239.388 22.7557C238.964 22.5133 238.63 22.1496 238.388 21.6648C238.145 21.1761 238.024 20.5606 238.024 19.8182V14.2727H239.365V19.7273C239.365 20.3636 239.543 20.8712 239.899 21.25C240.259 21.6288 240.717 21.8182 241.274 21.8182C241.607 21.8182 241.946 21.733 242.291 21.5625C242.64 21.392 242.931 21.1307 243.166 20.7784C243.405 20.4261 243.524 19.9773 243.524 19.4318ZM251.116 14.2727V15.4091H246.594V14.2727H251.116ZM247.912 12.1818H249.253V20.5C249.253 20.8788 249.308 21.1629 249.418 21.3523C249.531 21.5379 249.675 21.6629 249.849 21.7273C250.027 21.7879 250.215 21.8182 250.412 21.8182C250.56 21.8182 250.681 21.8106 250.776 21.7955C250.87 21.7765 250.946 21.7614 251.003 21.75L251.276 22.9545C251.185 22.9886 251.058 23.0227 250.895 23.0568C250.732 23.0947 250.526 23.1136 250.276 23.1136C249.897 23.1136 249.526 23.0322 249.162 22.8693C248.802 22.7064 248.503 22.4583 248.264 22.125C248.029 21.7917 247.912 21.3712 247.912 20.8636V12.1818ZM261.179 23.1818C260.391 23.1818 259.7 22.9943 259.105 22.6193C258.514 22.2443 258.052 21.7197 257.719 21.0455C257.389 20.3712 257.224 19.5833 257.224 18.6818C257.224 17.7727 257.389 16.9792 257.719 16.3011C258.052 15.6231 258.514 15.0966 259.105 14.7216C259.7 14.3466 260.391 14.1591 261.179 14.1591C261.967 14.1591 262.656 14.3466 263.247 14.7216C263.842 15.0966 264.304 15.6231 264.634 16.3011C264.967 16.9792 265.134 17.7727 265.134 18.6818C265.134 19.5833 264.967 20.3712 264.634 21.0455C264.304 21.7197 263.842 22.2443 263.247 22.6193C262.656 22.9943 261.967 23.1818 261.179 23.1818ZM261.179 21.9773C261.777 21.9773 262.27 21.8239 262.656 21.517C263.043 21.2102 263.329 20.8068 263.514 20.3068C263.7 19.8068 263.793 19.2652 263.793 18.6818C263.793 18.0985 263.7 17.5549 263.514 17.0511C263.329 16.5473 263.043 16.1402 262.656 15.8295C262.27 15.5189 261.777 15.3636 261.179 15.3636C260.58 15.3636 260.088 15.5189 259.702 15.8295C259.315 16.1402 259.029 16.5473 258.844 17.0511C258.658 17.5549 258.565 18.0985 258.565 18.6818C258.565 19.2652 258.658 19.8068 258.844 20.3068C259.029 20.8068 259.315 21.2102 259.702 21.517C260.088 21.8239 260.58 21.9773 261.179 21.9773ZM271.067 14.2727V15.4091H266.362V14.2727H271.067ZM267.771 23V13.0682C267.771 12.5682 267.889 12.1515 268.124 11.8182C268.358 11.4848 268.663 11.2348 269.038 11.0682C269.413 10.9015 269.809 10.8182 270.226 10.8182C270.555 10.8182 270.824 10.8447 271.033 10.8977C271.241 10.9508 271.396 11 271.499 11.0455L271.112 12.2045C271.044 12.1818 270.949 12.1534 270.828 12.1193C270.711 12.0852 270.555 12.0682 270.362 12.0682C269.919 12.0682 269.599 12.1799 269.402 12.4034C269.209 12.6269 269.112 12.9545 269.112 13.3864V23H267.771ZM281.06 23.1591C280.393 23.1591 279.793 23.0265 279.259 22.7614C278.724 22.4962 278.296 22.1326 277.974 21.6705C277.652 21.2083 277.476 20.6818 277.446 20.0909H278.81C278.863 20.6174 279.101 21.053 279.526 21.3977C279.954 21.7386 280.465 21.9091 281.06 21.9091C281.537 21.9091 281.961 21.7973 282.332 21.5739C282.707 21.3504 283.001 21.0436 283.213 20.6534C283.429 20.2595 283.537 19.8144 283.537 19.3182C283.537 18.8106 283.425 18.358 283.202 17.9602C282.982 17.5587 282.679 17.2424 282.293 17.0114C281.906 16.7803 281.465 16.6629 280.969 16.6591C280.613 16.6553 280.247 16.7102 279.872 16.8239C279.497 16.9337 279.188 17.0758 278.946 17.25L277.628 17.0909L278.332 11.3636H284.378V12.6136H279.514L279.105 16.0455H279.173C279.412 15.8561 279.711 15.6989 280.071 15.5739C280.431 15.4489 280.806 15.3864 281.196 15.3864C281.908 15.3864 282.543 15.5568 283.099 15.8977C283.66 16.2348 284.099 16.697 284.418 17.2841C284.74 17.8712 284.901 18.5417 284.901 19.2955C284.901 20.0379 284.734 20.7008 284.401 21.2841C284.071 21.8636 283.616 22.322 283.037 22.6591C282.457 22.9924 281.798 23.1591 281.06 23.1591Z" fill="black"/>
<path d="M304.5 20.9792L307.542 20.2083L308.813 24.125L304.5 20.9792ZM311.5 15.9167H306.146L304.5 10.875L302.854 15.9167H297.5L301.833 19.0417L300.187 24.0833L304.521 20.9583L307.187 19.0417L311.5 15.9167Z" fill="#219653"/>
<path d="M322.684 14.3926H320.07V21.5H318.312V14.3926H315.734V12.9688H322.684V14.3926ZM326.756 16.748C326.525 16.7168 326.322 16.7012 326.146 16.7012C325.506 16.7012 325.086 16.918 324.887 17.3516V21.5H323.193V15.1602H324.793L324.84 15.916C325.18 15.334 325.65 15.043 326.252 15.043C326.439 15.043 326.615 15.0684 326.779 15.1191L326.756 16.748ZM331.373 20.8555C330.955 21.3633 330.377 21.6172 329.639 21.6172C328.959 21.6172 328.439 21.4219 328.08 21.0312C327.725 20.6406 327.543 20.0684 327.535 19.3145V15.1602H329.229V19.2559C329.229 19.916 329.529 20.2461 330.131 20.2461C330.705 20.2461 331.1 20.0469 331.314 19.6484V15.1602H333.014V21.5H331.42L331.373 20.8555ZM337.725 19.748C337.725 19.541 337.621 19.3789 337.414 19.2617C337.211 19.1406 336.883 19.0332 336.43 18.9395C334.922 18.623 334.168 17.9824 334.168 17.0176C334.168 16.4551 334.4 15.9863 334.865 15.6113C335.334 15.2324 335.945 15.043 336.699 15.043C337.504 15.043 338.146 15.2324 338.627 15.6113C339.111 15.9902 339.354 16.4824 339.354 17.0879H337.66C337.66 16.8457 337.582 16.6465 337.426 16.4902C337.27 16.3301 337.025 16.25 336.693 16.25C336.408 16.25 336.188 16.3145 336.031 16.4434C335.875 16.5723 335.797 16.7363 335.797 16.9355C335.797 17.123 335.885 17.2754 336.061 17.3926C336.24 17.5059 336.541 17.6055 336.963 17.6914C337.385 17.7734 337.74 17.8672 338.029 17.9727C338.924 18.3008 339.371 18.8691 339.371 19.6777C339.371 20.2559 339.123 20.7246 338.627 21.084C338.131 21.4395 337.49 21.6172 336.705 21.6172C336.174 21.6172 335.701 21.5234 335.287 21.3359C334.877 21.1445 334.555 20.8848 334.32 20.5566C334.086 20.2246 333.969 19.8672 333.969 19.4844H335.574C335.59 19.7852 335.701 20.0156 335.908 20.1758C336.115 20.3359 336.393 20.416 336.74 20.416C337.064 20.416 337.309 20.3555 337.473 20.2344C337.641 20.1094 337.725 19.9473 337.725 19.748ZM342.494 13.6016V15.1602H343.578V16.4023H342.494V19.5664C342.494 19.8008 342.539 19.9688 342.629 20.0703C342.719 20.1719 342.891 20.2227 343.145 20.2227C343.332 20.2227 343.498 20.209 343.643 20.1816V21.4648C343.311 21.5664 342.969 21.6172 342.617 21.6172C341.43 21.6172 340.824 21.0176 340.801 19.8184V16.4023H339.875V15.1602H340.801V13.6016H342.494ZM350.229 18.3887C350.229 19.3652 350.006 20.1484 349.561 20.7383C349.119 21.3242 348.521 21.6172 347.768 21.6172C347.127 21.6172 346.609 21.3945 346.215 20.9492V23.9375H344.521V15.1602H346.092L346.15 15.7812C346.561 15.2891 347.096 15.043 347.756 15.043C348.537 15.043 349.145 15.332 349.578 15.9102C350.012 16.4883 350.229 17.2852 350.229 18.3008V18.3887ZM348.535 18.2656C348.535 17.6758 348.43 17.2207 348.219 16.9004C348.012 16.5801 347.709 16.4199 347.311 16.4199C346.779 16.4199 346.414 16.623 346.215 17.0293V19.625C346.422 20.043 346.791 20.252 347.322 20.252C348.131 20.252 348.535 19.5898 348.535 18.2656ZM353.07 21.5H351.371V15.1602H353.07V21.5ZM351.271 13.5195C351.271 13.2656 351.355 13.0566 351.523 12.8926C351.695 12.7285 351.928 12.6465 352.221 12.6465C352.51 12.6465 352.74 12.7285 352.912 12.8926C353.084 13.0566 353.17 13.2656 353.17 13.5195C353.17 13.7773 353.082 13.9883 352.906 14.1523C352.734 14.3164 352.506 14.3984 352.221 14.3984C351.936 14.3984 351.705 14.3164 351.529 14.1523C351.357 13.9883 351.271 13.7773 351.271 13.5195ZM356.258 21.5H354.559V12.5H356.258V21.5ZM357.395 18.2715C357.395 17.6426 357.516 17.082 357.758 16.5898C358 16.0977 358.348 15.7168 358.801 15.4473C359.258 15.1777 359.787 15.043 360.389 15.043C361.244 15.043 361.941 15.3047 362.48 15.8281C363.023 16.3516 363.326 17.0625 363.389 17.9609L363.4 18.3945C363.4 19.3672 363.129 20.1484 362.586 20.7383C362.043 21.3242 361.314 21.6172 360.4 21.6172C359.486 21.6172 358.756 21.3242 358.209 20.7383C357.666 20.1523 357.395 19.3555 357.395 18.3477V18.2715ZM359.088 18.3945C359.088 18.9961 359.201 19.457 359.428 19.7773C359.654 20.0938 359.979 20.252 360.4 20.252C360.811 20.252 361.131 20.0957 361.361 19.7832C361.592 19.4668 361.707 18.9629 361.707 18.2715C361.707 17.6816 361.592 17.2246 361.361 16.9004C361.131 16.5762 360.807 16.4141 360.389 16.4141C359.975 16.4141 359.654 16.5762 359.428 16.9004C359.201 17.2207 359.088 17.7188 359.088 18.3945ZM366.471 13.6016V15.1602H367.555V16.4023H366.471V19.5664C366.471 19.8008 366.516 19.9688 366.605 20.0703C366.695 20.1719 366.867 20.2227 367.121 20.2227C367.309 20.2227 367.475 20.209 367.619 20.1816V21.4648C367.287 21.5664 366.945 21.6172 366.594 21.6172C365.406 21.6172 364.801 21.0176 364.777 19.8184V16.4023H363.852V15.1602H364.777V13.6016H366.471Z" fill="black"/>
</svg>
